<?xml version="1.0" encoding="utf-8"?>
<!-- Generator: Adobe Illustrator 23.0.1, SVG Export Plug-In . SVG Version: 6.00 Build 0)  -->
<svg version="1.1" xmlns="http://www.w3.org/2000/svg" xmlns:xlink="http://www.w3.org/1999/xlink"
	x="0px" y="0px"
	viewBox="0 0 16 16" style="enable-background:new 0 0 16 16;" xml:space="preserve">
<path d="M1.5,9.4l5.6,5.3C7.4,14.9,7.7,15,8,15c0.3,0,0.6-0.1,0.9-0.3l5.6-5.3C15.5,8.5,16,7.3,16,6V5.8
	c0-2.2-1.6-4-3.7-4.4c-1.4-0.2-2.9,0.2-3.9,1.2L8,3L7.6,2.6c-1-1-2.5-1.5-3.9-1.2C1.6,1.7,0,3.6,0,5.8V6C0,7.3,0.5,8.5,1.5,9.4z"/>
</svg>