<?xml version="1.0" encoding="utf-8"?>
<svg version="1.1" id="notes-icon" xmlns="http://www.w3.org/2000/svg" xmlns:xlink="http://www.w3.org/1999/xlink" x="0px" y="0px"
	 viewBox="0 0 20 20" enable-background="new 0 0 20 20" xml:space="preserve" fill="#407888"> 
<path d="M0,3c0-1.7,1.3-3,3-3h12c0.6,0,1,0.4,1,1s-0.4,1-1,1H3C2.4,2,2,2.4,2,3v12c0,0.6-0.4,1-1,1s-1-0.4-1-1V3z"/>
<path d="M6.6,4C5.1,4,4,5.1,4,6.6v10.9C4,18.9,5.1,20,6.6,20h7.8c0.1,0,0.1,0,0.2,0v-3c0-1.4,1.1-2.5,2.5-2.5h3c0-0.1,0-0.1,0-0.2
	V6.6C20,5.1,18.9,4,17.4,4H6.6z"/>
<path d="M19.2,15.5H17c-0.8,0-1.5,0.7-1.5,1.5v2.2L19.2,15.5z"/>
</svg>
