<?xml version="1.0" encoding="utf-8"?>
<!-- Generator: Adobe Illustrator 23.0.1, SVG Export Plug-In . SVG Version: 6.00 Build 0)  -->
<svg version="1.1" id="Layer_1" xmlns="http://www.w3.org/2000/svg" xmlns:xlink="http://www.w3.org/1999/xlink" x="0px" y="0px"
	 viewBox="0 0 17.4 16.3" style="enable-background:new 0 0 17.4 16.3;" xml:space="preserve">
<path d="M14.6,3.6h-2V2.4c0-1-0.8-1.8-1.8-1.8H6.4c-1,0-1.8,0.8-1.8,1.8v1.2h-2c-1.1,0-2,0.9-2,2v3v0v1v4c0,1.1,0.9,2,2,2h12
	c1.1,0,2-0.9,2-2v-4v-1v-3C16.6,4.5,15.7,3.6,14.6,3.6z M11.2,3.6h-5V2.4c0-0.3,0-0.3,0.2-0.3h4.5c0.3,0,0.3,0,0.3,0.3V3.6z"/>
</svg>
